<?xml version="1.0" encoding="utf-8"?>
<svg version="1.1" id="Layer_1" xmlns="http://www.w3.org/2000/svg" x="0px" y="0px" width="1024px" viewBox="0 0 1024 1024" enable-background="new 0 0 1024 1024" xmlns:bx="https://boxy-svg.com" height="1024px"><defs><bx:export><bx:file format="svg" path="original.svg"/><bx:file format="png" background="#fff" path="whitebg.png"/><bx:file format="png" path="transbg.png" width="1024" height="1024"/></bx:export><linearGradient gradientUnits="userSpaceOnUse" x1="512" y1="36.004" x2="512" y2="987.996" id="gradient-0"><stop offset="0" style="stop-color: rgb(3.9216% 65.098% 10.588%)"/><stop offset="1" style="stop-color: rgb(0% 39.114% 0%)"/></linearGradient></defs><ellipse style="stroke-width: 0px; paint-order: stroke; stroke: rgb(37, 133, 40); stroke-opacity: 0; fill-rule: nonzero; fill: url(&quot;#gradient-0&quot;);" cx="512" cy="512" rx="468.242" ry="475.996"/><g transform="matrix(2.43306, 0, 0, 2.43306, -590.631487, -263.818703)" style=""><path opacity="1.000000" d="M 488.922 256.929 C 490.536 253.051 493.321 251.153 496.827 250.047 C 520.496 242.581 543.601 233.616 566.419 223.884 C 572.728 221.193 578.297 223.48 581.07 229.97 C 584.407 237.778 587.085 245.83 589.58 253.944 C 591.192 259.188 592.935 264.339 595.538 269.252 C 599.418 276.573 596.427 283.613 588.734 286.581 C 565.146 295.683 541.283 304.021 517.394 312.286 C 511.584 314.295 509.116 313.339 506.626 307.852 C 505.323 304.981 504.035 302.044 503.264 299.004 C 502.273 295.097 500.629 293.853 496.508 295.251 C 485.625 298.942 485.538 298.795 489.251 309.643 C 491.352 315.781 493.672 321.844 495.736 327.994 C 499.107 338.044 496.204 344.47 486.532 348.354 C 478.039 351.765 469.512 355.091 460.957 358.339 C 450.565 362.284 441.619 357.834 438.074 347.251 C 434.905 337.787 431.466 328.414 428.328 318.941 C 427.393 316.116 426.057 315.038 423.238 316.315 C 422.785 316.52 422.289 316.625 421.824 316.804 C 409.442 321.57 410.288 320.85 414.681 332.116 C 417.662 339.762 416.298 342.522 408.671 345.367 C 383.257 354.849 357.545 363.528 332.38 373.682 C 326.444 376.077 323.465 374.515 321.514 368.277 C 317.139 354.295 312.135 340.545 306.297 327.102 C 303.451 320.547 306.136 314.132 312.893 311.771 C 337.393 303.209 361.734 294.18 386.566 286.589 C 395.076 283.988 397.871 285.397 400.811 293.856 C 402.395 298.411 404.085 302.93 405.609 307.504 C 406.499 310.175 408.109 310.826 410.6 309.765 C 410.904 309.636 411.245 309.597 411.56 309.49 C 422.973 305.595 423.415 305.016 419.918 293.569 C 417.148 284.504 414.012 275.546 410.866 266.601 C 407.015 255.649 410.541 248.532 421.755 245.307 C 429.438 243.098 436.95 240.42 444.431 237.613 C 455.572 233.434 463.491 237.142 467.613 248.419 C 471.667 259.513 475.535 270.675 479.593 281.767 C 480.445 284.097 480.328 288.008 483.627 287.798 C 487.863 287.529 492.136 286.048 495.424 283.008 C 496.691 281.836 495.873 280.158 495.29 278.779 C 493.541 274.639 491.719 270.53 489.965 266.392 C 488.731 263.479 487.315 260.571 488.922 256.929 Z" style="stroke: rgb(170, 198, 106); paint-order: stroke; stroke-opacity: 0; fill: rgb(255, 255, 255);"/><path opacity="1.000000" d="M 436.244 430.237 C 431.03 424.992 430.256 422.018 432.762 417.802 C 435.874 412.566 439.246 411.201 444.354 414.141 C 471.375 429.695 512.42 420.822 530.938 391.202 C 534.992 384.718 539.105 383.818 544.578 387.177 C 549.535 390.22 550.433 394.479 546.982 400.018 C 534.057 420.764 515.534 433.448 491.593 438.315 C 472.296 442.238 453.953 439.678 436.244 430.237 Z" style="stroke: rgb(170, 198, 106); paint-order: stroke; stroke-opacity: 0; fill: rgb(255, 255, 255);"/><path opacity="1.000000" d="M 473.513 388.67 C 485.471 389.184 494.571 384.925 501.551 375.624 C 506.131 369.52 509.177 368.882 514.725 371.497 C 520.048 374.005 521.715 378.494 518.183 383.355 C 508.525 396.648 491.621 409.288 470.202 405.994 C 466.433 405.414 462.613 405.013 458.924 404.099 C 453.727 402.81 450.624 398.576 451.376 394.431 C 452.269 389.515 456.364 386.933 462.16 387.576 C 465.785 387.978 469.417 388.307 473.513 388.67 Z" style="stroke: rgb(170, 198, 106); paint-order: stroke; stroke-opacity: 0; fill: rgb(255, 255, 255);"/></g></svg>