<?xml version="1.0" encoding="utf-8"?>
<svg version="1.1" id="Layer_1" xmlns="http://www.w3.org/2000/svg" x="0px" y="0px" width="1024px" viewBox="0 0 1024 1024" enable-background="new 0 0 1024 1024" xmlns:bx="https://boxy-svg.com" height="1024px"><defs><linearGradient gradientUnits="userSpaceOnUse" x1="690.215" y1="503.575" x2="690.215" y2="709.767" id="gradient-0"><stop offset="0" style="stop-color: rgb(0% 78.824% 25.882%)"/><stop offset="1" style="stop-color: rgb(0% 46.545% 8.2045%)"/></linearGradient><linearGradient gradientUnits="userSpaceOnUse" x1="468.003" y1="491.013" x2="468.003" y2="785.618" id="gradient-1"><stop offset="0" style="stop-color: rgb(0% 78.824% 25.882%)"/><stop offset="1" style="stop-color: rgb(0% 46.545% 8.2045%)"/></linearGradient><linearGradient gradientUnits="userSpaceOnUse" x1="405.972" y1="552.701" x2="405.972" y2="823.316" id="gradient-2"><stop offset="0" style="stop-color: rgb(0% 78.824% 25.882%)"/><stop offset="1" style="stop-color: rgb(0% 46.545% 8.2045%)"/></linearGradient><linearGradient gradientUnits="userSpaceOnUse" x1="331.46" y1="616.632" x2="331.46" y2="816.418" id="gradient-3"><stop offset="0" style="stop-color: rgb(0% 78.824% 25.882%)"/><stop offset="1" style="stop-color: rgb(0% 46.545% 8.2045%)"/></linearGradient><bx:export><bx:file format="svg" path="original.svg"/><bx:file format="png" background="#fff" path="whitebg.png"/><bx:file format="png" path="transbg.png"/></bx:export></defs><path opacity="1.000000" stroke="none" d=" M874.641052,578.458008 C869.818298,604.690247 861.913269,629.554688 851.357361,653.523987 C833.673767,693.677979 809.713867,729.729309 779.463928,761.564819 C729.891602,813.735535 670.207031,848.657043 600.584229,866.768799 C565.319092,875.942749 529.437988,879.125183 493.201965,877.072815 C421.548920,873.014343 356.663971,849.439087 298.454590,807.540527 C240.729614,765.990662 198.624222,712.096680 171.540558,646.379333 C158.723709,615.279846 150.422882,583.003540 146.644730,549.618774 C143.208618,519.256470 142.934036,488.796417 147.630539,458.566925 C165.690765,342.320435 224.804657,253.189133 325.277618,191.819000 C365.718262,167.117340 409.860992,152.219376 456.522064,144.894501 C480.545654,141.123245 504.849884,139.650330 529.166687,140.854401 C597.701477,144.247925 660.872253,164.447617 717.815552,202.937256 C786.322205,249.242859 834.170593,311.635162 861.416016,389.744324 C870.650818,416.219574 876.346191,443.444794 879.564575,471.322174 C881.715332,489.952148 881.790710,508.571777 881.062256,527.162781 C880.393433,544.229919 878.172302,561.247681 874.641052,578.458008 M823.722900,653.279602 C842.188354,615.243164 852.659302,574.988831 855.415833,532.928223 C857.004395,508.689545 856.477600,484.355682 852.802429,460.183197 C848.150330,429.585510 840.047485,400.016754 827.632812,371.650360 C806.272766,322.844971 774.903503,281.479553 734.261902,247.209610 C675.179993,197.390305 607.270020,169.516953 529.728760,166.185623 C488.618347,164.419434 448.293579,169.175140 409.093597,181.896698 C329.477905,207.734360 267.108398,256.071136 222.192230,326.653015 C191.951508,374.173706 175.196732,426.385406 170.466766,482.398773 C168.163132,509.679047 169.875168,536.868530 174.175964,563.931641 C181.826050,612.070801 199.731171,656.210083 226.531326,696.660339 C260.843658,748.448853 305.952667,788.355469 361.513519,816.309448 C409.006989,840.204590 459.395935,852.159058 512.517700,852.595581 C529.009583,852.731079 545.394836,851.178955 561.710388,848.768982 C611.561218,841.405701 657.668213,824.101257 699.673584,796.278320 C754.013000,760.285583 795.083496,712.626404 823.722900,653.279602 z" style="fill-rule: nonzero; paint-order: fill; fill: rgb(0, 128, 42);"/><g><path opacity="1.000000" stroke="none" d=" M663.532715,785.364746 C640.012085,736.858643 608.458008,694.618164 570.224365,657.297791 C518.303284,606.616882 458.615997,568.482117 389.322937,545.970764 C364.435547,537.885559 339.035614,531.859436 313.115204,528.607056 C286.347717,525.248413 259.417206,524.171814 232.411560,526.026306 C222.457520,526.709839 212.470825,526.946899 202.550751,528.121887 C199.694473,528.460205 198.637772,527.206665 198.656097,524.457031 C198.706100,516.959717 198.694626,509.461151 198.613449,501.964142 C198.584000,499.245514 199.917542,498.082489 202.455383,497.746552 C224.698563,494.802399 246.974152,492.506531 269.423706,491.465485 C286.769073,490.661163 304.041901,491.043701 321.335846,491.719879 C347.450043,492.740997 373.278442,496.122375 398.921265,501.207245 C468.580597,515.020264 532.791382,542.034119 591.827087,581.247864 C648.927063,619.175781 697.675110,665.726990 735.691040,723.121582 C738.254517,726.991882 737.910095,729.115295 734.728821,732.308594 C714.983704,752.128540 693.018311,769.061340 669.146973,783.566772 C667.545959,784.539551 666.082092,786.268799 663.532715,785.364746 z" style="paint-order: fill; fill: url(&quot;#gradient-1&quot;);"/><path opacity="1.000000" stroke="none" d=" M438.629272,614.304504 C513.818054,663.235657 571.477417,727.132263 610.582336,808.319885 C602.109436,811.637085 594.159302,813.257202 586.272827,815.040100 C562.655090,820.379272 538.658264,822.438721 514.513733,823.306519 C510.750488,823.441772 508.857239,822.129150 507.337433,818.731995 C483.811432,766.144226 450.072937,720.906738 408.532532,681.209900 C379.050903,653.036743 345.781464,630.697998 308.217773,614.860535 C282.962952,604.212708 256.752045,596.867493 229.536453,593.288696 C223.940277,592.552734 218.332474,591.904724 212.727951,591.233337 C210.673416,590.987244 208.575363,590.638184 208.009689,588.270081 C205.275360,576.823242 202.355301,565.403870 201.361893,552.759827 C286.335480,551.546021 365.841644,569.108826 438.629272,614.304504 z" style="paint-order: fill; fill: url(&quot;#gradient-2&quot;);"/><path opacity="1.000000" stroke="none" d=" M434.166199,792.905029 C438.431000,800.430603 442.579712,807.604736 446.379517,816.417542 C400.114594,806.130981 359.343414,786.829346 322.915619,758.449890 C274.893402,721.037781 239.205139,674.287415 216.541336,616.631653 C222.845123,616.958008 227.752792,619.052185 232.716492,620.612305 C289.164673,638.354248 335.518311,671.515381 375.587097,714.282837 C397.995636,738.200500 417.614838,764.176697 434.166199,792.905029 z" style="paint-order: fill; fill: url(&quot;#gradient-3&quot;);"/></g><path opacity="1.000000" stroke="none" d=" M730.793518,544.082764 C699.760315,547.911438 669.705383,554.276428 640.101868,562.807617 C633.230408,564.787720 626.401367,566.917236 619.571289,569.037537 C617.759216,569.600037 616.115723,569.959534 614.372742,568.720398 C594.797363,554.803650 574.150269,542.635498 553.049744,531.208313 C552.671021,531.003235 552.455933,530.495972 551.925537,529.829407 C555.400269,527.464355 559.388855,526.978394 563.101135,525.978088 C587.656555,519.361084 612.380554,513.442200 637.602966,509.968140 C663.142944,506.450317 688.766602,503.834503 714.595398,503.638824 C742.573547,503.426880 770.537598,503.647675 798.447937,505.798737 C807.219849,506.474731 815.948303,507.708740 824.718689,508.413025 C828.147766,508.688416 828.554016,510.212952 828.500488,513.260803 C827.374023,577.435120 807.236267,635.317871 770.950378,687.886658 C765.967224,695.106140 761.158386,702.465637 754.779602,709.766541 C723.123840,663.078552 684.965088,623.253845 640.355652,587.919312 C681.076721,572.501648 720.745178,557.482483 760.413635,542.463318 C750.403381,541.119446 740.820068,542.581299 730.793518,544.082764 z" style="fill: url(&quot;#gradient-0&quot;);"/><g transform="matrix(1.080882, 0, 0, 1.080882, -17.26693, -1.215143)" style=""><path opacity="1.000000" stroke="none" d="M 488.922 256.929 C 490.536 253.051 493.321 251.153 496.827 250.047 C 520.496 242.581 543.601 233.616 566.419 223.884 C 572.728 221.193 578.297 223.48 581.07 229.97 C 584.407 237.778 587.085 245.83 589.58 253.944 C 591.192 259.188 592.935 264.339 595.538 269.252 C 599.418 276.573 596.427 283.613 588.734 286.581 C 565.146 295.683 541.283 304.021 517.394 312.286 C 511.584 314.295 509.116 313.339 506.626 307.852 C 505.323 304.981 504.035 302.044 503.264 299.004 C 502.273 295.097 500.629 293.853 496.508 295.251 C 485.625 298.942 485.538 298.795 489.251 309.643 C 491.352 315.781 493.672 321.844 495.736 327.994 C 499.107 338.044 496.204 344.47 486.532 348.354 C 478.039 351.765 469.512 355.091 460.957 358.339 C 450.565 362.284 441.619 357.834 438.074 347.251 C 434.905 337.787 431.466 328.414 428.328 318.941 C 427.393 316.116 426.057 315.038 423.238 316.315 C 422.785 316.52 422.289 316.625 421.824 316.804 C 409.442 321.57 410.288 320.85 414.681 332.116 C 417.662 339.762 416.298 342.522 408.671 345.367 C 383.257 354.849 357.545 363.528 332.38 373.682 C 326.444 376.077 323.465 374.515 321.514 368.277 C 317.139 354.295 312.135 340.545 306.297 327.102 C 303.451 320.547 306.136 314.132 312.893 311.771 C 337.393 303.209 361.734 294.18 386.566 286.589 C 395.076 283.988 397.871 285.397 400.811 293.856 C 402.395 298.411 404.085 302.93 405.609 307.504 C 406.499 310.175 408.109 310.826 410.6 309.765 C 410.904 309.636 411.245 309.597 411.56 309.49 C 422.973 305.595 423.415 305.016 419.918 293.569 C 417.148 284.504 414.012 275.546 410.866 266.601 C 407.015 255.649 410.541 248.532 421.755 245.307 C 429.438 243.098 436.95 240.42 444.431 237.613 C 455.572 233.434 463.491 237.142 467.613 248.419 C 471.667 259.513 475.535 270.675 479.593 281.767 C 480.445 284.097 480.328 288.008 483.627 287.798 C 487.863 287.529 492.136 286.048 495.424 283.008 C 496.691 281.836 495.873 280.158 495.29 278.779 C 493.541 274.639 491.719 270.53 489.965 266.392 C 488.731 263.479 487.315 260.571 488.922 256.929 Z" style="fill: rgb(0, 128, 42);"/><path opacity="1.000000" stroke="none" d="M 436.244 430.237 C 431.03 424.992 430.256 422.018 432.762 417.802 C 435.874 412.566 439.246 411.201 444.354 414.141 C 471.375 429.695 512.42 420.822 530.938 391.202 C 534.992 384.718 539.105 383.818 544.578 387.177 C 549.535 390.22 550.433 394.479 546.982 400.018 C 534.057 420.764 515.534 433.448 491.593 438.315 C 472.296 442.238 453.953 439.678 436.244 430.237 Z" style="fill: rgb(0, 128, 42);"/><path opacity="1.000000" stroke="none" d="M 473.513 388.67 C 485.471 389.184 494.571 384.925 501.551 375.624 C 506.131 369.52 509.177 368.882 514.725 371.497 C 520.048 374.005 521.715 378.494 518.183 383.355 C 508.525 396.648 491.621 409.288 470.202 405.994 C 466.433 405.414 462.613 405.013 458.924 404.099 C 453.727 402.81 450.624 398.576 451.376 394.431 C 452.269 389.515 456.364 386.933 462.16 387.576 C 465.785 387.978 469.417 388.307 473.513 388.67 Z" style="fill: rgb(0, 128, 42);"/></g></svg>